<svg width="289" height="80" viewBox="0 0 289 80" fill="none" xmlns="http://www.w3.org/2000/svg">
<path d="M112.104 6.25793V23H108.636V15.7052H98.8297V23H95.3617V6.25793H98.8297V13.9114H108.636V6.25793H112.104ZM122.145 21.9237C122.656 21.9237 123.134 21.8281 123.58 21.6367C124.027 21.4454 124.417 21.1504 124.752 20.7518C125.087 20.3372 125.35 19.8031 125.542 19.1493C125.749 18.4956 125.852 17.7063 125.852 16.7815C125.852 15.8567 125.749 15.0674 125.542 14.4137C125.35 13.76 125.087 13.2338 124.752 12.8352C124.417 12.4206 124.027 12.1177 123.58 11.9263C123.134 11.735 122.656 11.6393 122.145 11.6393C121.635 11.6393 121.157 11.735 120.71 11.9263C120.264 12.1177 119.873 12.4206 119.538 12.8352C119.203 13.2338 118.932 13.76 118.725 14.4137C118.534 15.0674 118.438 15.8567 118.438 16.7815C118.438 17.7063 118.534 18.4956 118.725 19.1493C118.932 19.8031 119.203 20.3372 119.538 20.7518C119.873 21.1504 120.264 21.4454 120.71 21.6367C121.157 21.8281 121.635 21.9237 122.145 21.9237ZM122.145 10.0847C123.214 10.0847 124.194 10.2362 125.087 10.5391C125.996 10.8261 126.769 11.2566 127.407 11.8306C128.045 12.3887 128.539 13.0903 128.89 13.9354C129.257 14.7645 129.44 15.7132 129.44 16.7815C129.44 17.8658 129.257 18.8225 128.89 19.6516C128.539 20.4807 128.045 21.1823 127.407 21.7563C126.769 22.3144 125.996 22.7369 125.087 23.0239C124.194 23.3269 123.214 23.4783 122.145 23.4783C121.061 23.4783 120.072 23.3269 119.18 23.0239C118.287 22.7369 117.521 22.3144 116.884 21.7563C116.246 21.1823 115.743 20.4807 115.377 19.6516C115.026 18.8225 114.851 17.8658 114.851 16.7815C114.851 15.7132 115.026 14.7645 115.377 13.9354C115.743 13.0903 116.246 12.3887 116.884 11.8306C117.521 11.2566 118.287 10.8261 119.18 10.5391C120.072 10.2362 121.061 10.0847 122.145 10.0847ZM141.643 12.2372H138.772C137.688 12.2372 136.859 12.5322 136.285 13.1222C135.711 13.6962 135.424 14.5572 135.424 15.7052V23H132.076V15.7052C132.076 14.0789 132.586 12.8192 133.606 11.9263C134.643 11.0175 136.126 10.563 138.055 10.563H141.643V12.2372ZM147.015 23H143.666V10.8022H147.015V23ZM147.134 7.57338C147.134 8.05172 146.967 8.47426 146.632 8.84099C146.313 9.19178 145.882 9.36717 145.34 9.36717C144.798 9.36717 144.36 9.19178 144.025 8.84099C143.706 8.47426 143.547 8.05172 143.547 7.57338C143.547 7.09503 143.706 6.68047 144.025 6.32968C144.36 5.96295 144.798 5.77959 145.34 5.77959C145.867 5.77959 146.297 5.96295 146.632 6.32968C146.967 6.68047 147.134 7.09503 147.134 7.57338ZM162.083 21.3258V23H149.646V21.0866L157.898 12.2372H149.886V10.563H161.844V12.4764L153.593 21.3258H162.083ZM170.564 21.9237C171.074 21.9237 171.552 21.8281 171.999 21.6367C172.445 21.4454 172.836 21.1504 173.171 20.7518C173.506 20.3372 173.769 19.8031 173.96 19.1493C174.167 18.4956 174.271 17.7063 174.271 16.7815C174.271 15.8567 174.167 15.0674 173.96 14.4137C173.769 13.76 173.506 13.2338 173.171 12.8352C172.836 12.4206 172.445 12.1177 171.999 11.9263C171.552 11.735 171.074 11.6393 170.564 11.6393C170.053 11.6393 169.575 11.735 169.129 11.9263C168.682 12.1177 168.292 12.4206 167.957 12.8352C167.622 13.2338 167.351 13.76 167.144 14.4137C166.952 15.0674 166.857 15.8567 166.857 16.7815C166.857 17.7063 166.952 18.4956 167.144 19.1493C167.351 19.8031 167.622 20.3372 167.957 20.7518C168.292 21.1504 168.682 21.4454 169.129 21.6367C169.575 21.8281 170.053 21.9237 170.564 21.9237ZM170.564 10.0847C171.632 10.0847 172.613 10.2362 173.506 10.5391C174.414 10.8261 175.188 11.2566 175.826 11.8306C176.463 12.3887 176.958 13.0903 177.308 13.9354C177.675 14.7645 177.858 15.7132 177.858 16.7815C177.858 17.8658 177.675 18.8225 177.308 19.6516C176.958 20.4807 176.463 21.1823 175.826 21.7563C175.188 22.3144 174.414 22.7369 173.506 23.0239C172.613 23.3269 171.632 23.4783 170.564 23.4783C169.479 23.4783 168.491 23.3269 167.598 23.0239C166.705 22.7369 165.94 22.3144 165.302 21.7563C164.664 21.1823 164.162 20.4807 163.795 19.6516C163.444 18.8225 163.269 17.8658 163.269 16.7815C163.269 15.7132 163.444 14.7645 163.795 13.9354C164.162 13.0903 164.664 12.3887 165.302 11.8306C165.94 11.2566 166.705 10.8261 167.598 10.5391C168.491 10.2362 169.479 10.0847 170.564 10.0847ZM193.768 23H190.42V15.4661C190.42 14.318 190.133 13.4969 189.559 13.0026C188.985 12.4924 188.156 12.2372 187.071 12.2372H183.962V23H180.614V10.563H187.071C189.351 10.563 191.034 10.9776 192.118 11.8067C193.218 12.6199 193.768 13.8397 193.768 15.4661V23Z" fill="#040404"/>
<path d="M69.5 0C59.3138 0 51 6.52061 51 14.5098C51 22.499 59.3138 29.0196 69.5 29.0196C79.6862 29.0196 88 22.499 88 14.5098C88 6.52061 79.6862 0 69.5 0ZM56.168 14.5098C56.168 11.5139 57.8158 8.75289 60.4372 6.87307C61.4858 6.1094 63.2834 6.34437 64.0324 7.34302L68.6761 13.6286C69.1255 14.2161 69.1255 14.921 68.6761 15.5085L64.0324 21.7941C63.2834 22.8515 61.4858 23.0277 60.3623 22.2053C57.8158 20.208 56.168 17.5058 56.168 14.5098ZM74.9676 21.6766L70.3239 15.391C69.8745 14.8035 69.8745 14.0986 70.3239 13.5112L74.9676 7.22552C75.7166 6.22687 77.4393 5.9919 78.5628 6.75558C81.1842 8.63539 82.832 11.3964 82.832 14.3923C82.832 17.3883 81.1842 20.1492 78.5628 22.0291C77.4393 22.969 75.7166 22.734 74.9676 21.6766Z" fill="black"/>
</svg>
