<svg width="204" height="38" viewBox="0 0 204 38" fill="none" xmlns="http://www.w3.org/2000/svg">
<path d="M69.6038 6.25793V23H66.1358V15.7052H56.3297V23H52.8617V6.25793H56.3297V13.9114H66.1358V6.25793H69.6038ZM79.6453 21.9237C80.1556 21.9237 80.6339 21.8281 81.0804 21.6367C81.5268 21.4454 81.9175 21.1504 82.2523 20.7518C82.5871 20.3372 82.8502 19.8031 83.0416 19.1493C83.2489 18.4956 83.3525 17.7063 83.3525 16.7815C83.3525 15.8567 83.2489 15.0674 83.0416 14.4137C82.8502 13.76 82.5871 13.2338 82.2523 12.8352C81.9175 12.4206 81.5268 12.1177 81.0804 11.9263C80.6339 11.735 80.1556 11.6393 79.6453 11.6393C79.1351 11.6393 78.6567 11.735 78.2103 11.9263C77.7638 12.1177 77.3732 12.4206 77.0383 12.8352C76.7035 13.2338 76.4324 13.76 76.2252 14.4137C76.0338 15.0674 75.9381 15.8567 75.9381 16.7815C75.9381 17.7063 76.0338 18.4956 76.2252 19.1493C76.4324 19.8031 76.7035 20.3372 77.0383 20.7518C77.3732 21.1504 77.7638 21.4454 78.2103 21.6367C78.6567 21.8281 79.1351 21.9237 79.6453 21.9237ZM79.6453 10.0847C80.7136 10.0847 81.6942 10.2362 82.5871 10.5391C83.496 10.8261 84.2693 11.2566 84.9071 11.8306C85.5449 12.3887 86.0392 13.0903 86.39 13.9354C86.7567 14.7645 86.9401 15.7132 86.9401 16.7815C86.9401 17.8658 86.7567 18.8225 86.39 19.6516C86.0392 20.4807 85.5449 21.1823 84.9071 21.7563C84.2693 22.3144 83.496 22.7369 82.5871 23.0239C81.6942 23.3269 80.7136 23.4783 79.6453 23.4783C78.5611 23.4783 77.5725 23.3269 76.6796 23.0239C75.7867 22.7369 75.0213 22.3144 74.3835 21.7563C73.7457 21.1823 73.2435 20.4807 72.8767 19.6516C72.526 18.8225 72.3506 17.8658 72.3506 16.7815C72.3506 15.7132 72.526 14.7645 72.8767 13.9354C73.2435 13.0903 73.7457 12.3887 74.3835 11.8306C75.0213 11.2566 75.7867 10.8261 76.6796 10.5391C77.5725 10.2362 78.5611 10.0847 79.6453 10.0847ZM99.1425 12.2372H96.2725C95.1882 12.2372 94.3591 12.5322 93.7851 13.1222C93.2111 13.6962 92.9241 14.5572 92.9241 15.7052V23H89.5756V15.7052C89.5756 14.0789 90.0859 12.8192 91.1064 11.9263C92.1428 11.0175 93.6256 10.563 95.555 10.563H99.1425V12.2372ZM104.515 23H101.166V10.8022H104.515V23ZM104.634 7.57338C104.634 8.05172 104.467 8.47426 104.132 8.84099C103.813 9.19178 103.382 9.36717 102.84 9.36717C102.298 9.36717 101.86 9.19178 101.525 8.84099C101.206 8.47426 101.047 8.05172 101.047 7.57338C101.047 7.09503 101.206 6.68047 101.525 6.32968C101.86 5.96295 102.298 5.77959 102.84 5.77959C103.367 5.77959 103.797 5.96295 104.132 6.32968C104.467 6.68047 104.634 7.09503 104.634 7.57338ZM119.583 21.3258V23H107.146V21.0866L115.398 12.2372H107.386V10.563H119.344V12.4764L111.093 21.3258H119.583ZM128.064 21.9237C128.574 21.9237 129.052 21.8281 129.499 21.6367C129.945 21.4454 130.336 21.1504 130.671 20.7518C131.006 20.3372 131.269 19.8031 131.46 19.1493C131.667 18.4956 131.771 17.7063 131.771 16.7815C131.771 15.8567 131.667 15.0674 131.46 14.4137C131.269 13.76 131.006 13.2338 130.671 12.8352C130.336 12.4206 129.945 12.1177 129.499 11.9263C129.052 11.735 128.574 11.6393 128.064 11.6393C127.553 11.6393 127.075 11.735 126.629 11.9263C126.182 12.1177 125.792 12.4206 125.457 12.8352C125.122 13.2338 124.851 13.76 124.644 14.4137C124.452 15.0674 124.357 15.8567 124.357 16.7815C124.357 17.7063 124.452 18.4956 124.644 19.1493C124.851 19.8031 125.122 20.3372 125.457 20.7518C125.792 21.1504 126.182 21.4454 126.629 21.6367C127.075 21.8281 127.553 21.9237 128.064 21.9237ZM128.064 10.0847C129.132 10.0847 130.113 10.2362 131.006 10.5391C131.914 10.8261 132.688 11.2566 133.326 11.8306C133.963 12.3887 134.458 13.0903 134.808 13.9354C135.175 14.7645 135.358 15.7132 135.358 16.7815C135.358 17.8658 135.175 18.8225 134.808 19.6516C134.458 20.4807 133.963 21.1823 133.326 21.7563C132.688 22.3144 131.914 22.7369 131.006 23.0239C130.113 23.3269 129.132 23.4783 128.064 23.4783C126.979 23.4783 125.991 23.3269 125.098 23.0239C124.205 22.7369 123.44 22.3144 122.802 21.7563C122.164 21.1823 121.662 20.4807 121.295 19.6516C120.944 18.8225 120.769 17.8658 120.769 16.7815C120.769 15.7132 120.944 14.7645 121.295 13.9354C121.662 13.0903 122.164 12.3887 122.802 11.8306C123.44 11.2566 124.205 10.8261 125.098 10.5391C125.991 10.2362 126.979 10.0847 128.064 10.0847ZM151.268 23H147.92V15.4661C147.92 14.318 147.633 13.4969 147.059 13.0026C146.485 12.4924 145.656 12.2372 144.571 12.2372H141.462V23H138.114V10.563H144.571C146.851 10.563 148.534 10.9776 149.618 11.8067C150.718 12.6199 151.268 13.8397 151.268 15.4661V23Z" fill="black"/>
<path d="M28.5 0C18.3138 0 10 6.52061 10 14.5098C10 22.499 18.3138 29.0196 28.5 29.0196C38.6862 29.0196 47 22.499 47 14.5098C47 6.52061 38.6862 0 28.5 0ZM15.168 14.5098C15.168 11.5139 16.8158 8.75289 19.4372 6.87307C20.4858 6.1094 22.2834 6.34437 23.0324 7.34302L27.6761 13.6287C28.1255 14.2161 28.1255 14.921 27.6761 15.5085L23.0324 21.7941C22.2834 22.8515 20.4858 23.0277 19.3623 22.2053C16.8158 20.208 15.168 17.5058 15.168 14.5098ZM33.9676 21.6766L29.3239 15.391C28.8745 14.8035 28.8745 14.0986 29.3239 13.5112L33.9676 7.22552C34.7166 6.22687 36.4393 5.9919 37.5628 6.75558C40.1842 8.63539 41.832 11.3964 41.832 14.3923C41.832 17.3883 40.1842 20.1492 37.5628 22.0291C36.4393 22.969 34.7166 22.734 33.9676 21.6766Z" fill="black"/>
</svg>
