<svg width="283" height="80" viewBox="0 0 283 80" fill="none" xmlns="http://www.w3.org/2000/svg">
<path d="M109.104 6.25793V23H105.636V15.7052H95.8297V23H92.3617V6.25793H95.8297V13.9114H105.636V6.25793H109.104ZM119.145 21.9237C119.656 21.9237 120.134 21.8281 120.58 21.6367C121.027 21.4454 121.417 21.1504 121.752 20.7518C122.087 20.3372 122.35 19.8031 122.542 19.1493C122.749 18.4956 122.852 17.7063 122.852 16.7815C122.852 15.8567 122.749 15.0674 122.542 14.4137C122.35 13.76 122.087 13.2338 121.752 12.8352C121.417 12.4206 121.027 12.1177 120.58 11.9263C120.134 11.735 119.656 11.6393 119.145 11.6393C118.635 11.6393 118.157 11.735 117.71 11.9263C117.264 12.1177 116.873 12.4206 116.538 12.8352C116.203 13.2338 115.932 13.76 115.725 14.4137C115.534 15.0674 115.438 15.8567 115.438 16.7815C115.438 17.7063 115.534 18.4956 115.725 19.1493C115.932 19.8031 116.203 20.3372 116.538 20.7518C116.873 21.1504 117.264 21.4454 117.71 21.6367C118.157 21.8281 118.635 21.9237 119.145 21.9237ZM119.145 10.0847C120.214 10.0847 121.194 10.2362 122.087 10.5391C122.996 10.8261 123.769 11.2566 124.407 11.8306C125.045 12.3887 125.539 13.0903 125.89 13.9354C126.257 14.7645 126.44 15.7132 126.44 16.7815C126.44 17.8658 126.257 18.8225 125.89 19.6516C125.539 20.4807 125.045 21.1823 124.407 21.7563C123.769 22.3144 122.996 22.7369 122.087 23.0239C121.194 23.3269 120.214 23.4783 119.145 23.4783C118.061 23.4783 117.072 23.3269 116.18 23.0239C115.287 22.7369 114.521 22.3144 113.884 21.7563C113.246 21.1823 112.743 20.4807 112.377 19.6516C112.026 18.8225 111.851 17.8658 111.851 16.7815C111.851 15.7132 112.026 14.7645 112.377 13.9354C112.743 13.0903 113.246 12.3887 113.884 11.8306C114.521 11.2566 115.287 10.8261 116.18 10.5391C117.072 10.2362 118.061 10.0847 119.145 10.0847ZM138.643 12.2372H135.772C134.688 12.2372 133.859 12.5322 133.285 13.1222C132.711 13.6962 132.424 14.5572 132.424 15.7052V23H129.076V15.7052C129.076 14.0789 129.586 12.8192 130.606 11.9263C131.643 11.0175 133.126 10.563 135.055 10.563H138.643V12.2372ZM144.015 23H140.666V10.8022H144.015V23ZM144.134 7.57338C144.134 8.05172 143.967 8.47426 143.632 8.84099C143.313 9.19178 142.882 9.36717 142.34 9.36717C141.798 9.36717 141.36 9.19178 141.025 8.84099C140.706 8.47426 140.547 8.05172 140.547 7.57338C140.547 7.09503 140.706 6.68047 141.025 6.32968C141.36 5.96295 141.798 5.77959 142.34 5.77959C142.867 5.77959 143.297 5.96295 143.632 6.32968C143.967 6.68047 144.134 7.09503 144.134 7.57338ZM159.083 21.3258V23H146.646V21.0866L154.898 12.2372H146.886V10.563H158.844V12.4764L150.593 21.3258H159.083ZM167.564 21.9237C168.074 21.9237 168.552 21.8281 168.999 21.6367C169.445 21.4454 169.836 21.1504 170.171 20.7518C170.506 20.3372 170.769 19.8031 170.96 19.1493C171.167 18.4956 171.271 17.7063 171.271 16.7815C171.271 15.8567 171.167 15.0674 170.96 14.4137C170.769 13.76 170.506 13.2338 170.171 12.8352C169.836 12.4206 169.445 12.1177 168.999 11.9263C168.552 11.735 168.074 11.6393 167.564 11.6393C167.053 11.6393 166.575 11.735 166.129 11.9263C165.682 12.1177 165.292 12.4206 164.957 12.8352C164.622 13.2338 164.351 13.76 164.144 14.4137C163.952 15.0674 163.857 15.8567 163.857 16.7815C163.857 17.7063 163.952 18.4956 164.144 19.1493C164.351 19.8031 164.622 20.3372 164.957 20.7518C165.292 21.1504 165.682 21.4454 166.129 21.6367C166.575 21.8281 167.053 21.9237 167.564 21.9237ZM167.564 10.0847C168.632 10.0847 169.613 10.2362 170.506 10.5391C171.414 10.8261 172.188 11.2566 172.826 11.8306C173.463 12.3887 173.958 13.0903 174.308 13.9354C174.675 14.7645 174.858 15.7132 174.858 16.7815C174.858 17.8658 174.675 18.8225 174.308 19.6516C173.958 20.4807 173.463 21.1823 172.826 21.7563C172.188 22.3144 171.414 22.7369 170.506 23.0239C169.613 23.3269 168.632 23.4783 167.564 23.4783C166.479 23.4783 165.491 23.3269 164.598 23.0239C163.705 22.7369 162.94 22.3144 162.302 21.7563C161.664 21.1823 161.162 20.4807 160.795 19.6516C160.444 18.8225 160.269 17.8658 160.269 16.7815C160.269 15.7132 160.444 14.7645 160.795 13.9354C161.162 13.0903 161.664 12.3887 162.302 11.8306C162.94 11.2566 163.705 10.8261 164.598 10.5391C165.491 10.2362 166.479 10.0847 167.564 10.0847ZM190.768 23H187.42V15.4661C187.42 14.318 187.133 13.4969 186.559 13.0026C185.985 12.4924 185.156 12.2372 184.071 12.2372H180.962V23H177.614V10.563H184.071C186.351 10.563 188.034 10.9776 189.118 11.8067C190.218 12.6199 190.768 13.8397 190.768 15.4661V23Z" fill="white"/>
<path d="M68.0571 0C58.0823 0 49.9412 6.54317 49.9412 14.56C49.9412 22.5769 58.0823 29.12 68.0571 29.12C78.0318 29.12 86.173 22.5769 86.173 14.56C86.173 6.54317 78.0318 0 68.0571 0ZM55.0019 14.56C55.0019 11.5537 56.6154 8.78317 59.1825 6.89685C60.2093 6.13054 61.9695 6.36632 62.703 7.36843L67.2503 13.6758C67.6904 14.2653 67.6904 14.9726 67.2503 15.5621L62.703 21.8695C61.9695 22.9305 60.2093 23.1074 59.1091 22.2821C56.6154 20.2779 55.0019 17.5663 55.0019 14.56ZM73.4112 21.7516L68.8639 15.4442C68.4238 14.8548 68.4238 14.1474 68.8639 13.5579L73.4112 7.25052C74.1446 6.24842 75.8315 6.01264 76.9317 6.77895C79.4987 8.66527 81.1123 11.4358 81.1123 14.4421C81.1123 17.4484 79.4987 20.219 76.9317 22.1053C75.8315 23.0484 74.1446 22.8126 73.4112 21.7516Z" fill="white"/>
</svg>
